# xmcd CD database file
#
# Track frame offsets:
#	183
#	39695
#	64480
#	86668
#	108718
#	133173
#
# Disc length: 2250 seconds
#
# Revision: 0
# Processed by: cddbd v1.5.1PL0 Copyright (c) Steve Scherf et al.
# Submitted via: CDex 1.51
#
DISCID=5a08c806
DTITLE=Roland Kirk - Soul Station
DYEAR=1960
DGENRE=Jazz
TTITLE0=The Call
TTITLE1=Soul Station
TTITLE2=Our Waltz
TTITLE3=Our Love is Here to Stay
TTITLE4=Spirit Girl
TTITLE5=Jack the Ripper
EXTD=YEAR: 1960
EXTT0=
EXTT1=
EXTT2=
EXTT3=
EXTT4=
EXTT5=
PLAYORDER=
